Patient4_TMGait_0pt5_02_right_10_EMG.mot
version=1
nRows=23
nColumns=33
inDegrees=no
endheader
time	1LAddLong	2LGlutMax	3LGlutMed	4LIliopsoas	5LSemiMemb	6LBicFemLong	7LRecFem	8LVastMed	9LVastLat	10LGasMed	11LTibAnt	12lTibPost	13LPeroneusLong	14LSol	15LExtDigLong	16LFlexDigLong	17RAddLong	18RGlutMax	19RGlutMed	20RIliopsoas	21RSemiMemb	22RBicFemLong	23RRecFem	24RVastMed	25RVastLat	26RGasMed	27RTibAnt	28RTibPost	29RPeroneusLong	30RSol	31RExtDigLong	32RFlexDigLong
13.552	0.001984	-0.17151	-0.084839	0.016937	0.001984	-0.029755	0.13138	0	0.15732	-0.019836	0.012817	0.007324	-0.19836	-0.13992	0.62943	-0.019531	-0.014954	-0.2594	1.1975	-0.0177	0.17899	-0.13947	0.39963	0.085754	-0.055542	0.002899	0.056458	-0.000763	0.023346	0.89127	-0.000916	-0.013885
13.553	0.005646	-0.16708	-0.088043	0.029755	0.007935	-0.032196	0.11902	0.005188	0.17838	-0.026398	-0.033722	0.015106	-0.10757	-0.10788	1.228	-0.033875	0.023346	-0.33264	0.35797	-0.004883	0.084534	-0.17456	0.30991	-0.050507	-0.064545	0.002899	0.06073	-0.036163	0.022583	0.51407	-0.001068	-0.002594
13.554	0.006104	-0.18967	-0.10117	0.014954	0.010529	-0.029449	0.12329	0.001221	0.18814	-0.036774	-0.14908	0.011444	-0.056152	-0.052643	0.36026	-0.019379	0.036621	-0.65399	-0.40512	0.020599	-0.16403	-0.16724	0.33402	-0.033264	-0.072784	-0.027313	0.054016	0.12573	0.027618	0.61188	-0.002747	-0.000153
13.555	0.00412	-0.21759	-0.10956	0.000916	0.007324	-0.011902	0.11154	-0.001984	0.19012	-0.073853	-0.12482	0.010681	-0.032806	0.085144	-0.015869	-0.02243	0.036469	-1.0535	-0.215	0.013428	-0.55359	-0.059204	0.23361	-0.1535	-0.093842	-0.081024	0.042725	0.034943	-0.023041	0.40375	0	-0.007629
13.556	0.001526	-0.21347	-0.10132	-0.018768	0.000916	-0.021515	0.064087	-0.000458	0.2121	-0.083466	0.036621	0.021515	-0.004578	0.121	-0.047913	-0.031891	0.045929	-1.2637	0.52765	-0.080414	-0.68268	0.027008	0.21103	-0.28076	-0.11337	-0.08606	0.040588	-0.018616	-0.05722	0.15884	-0.002136	-0.010223
13.557	-0.00351	-0.23392	-0.075836	0.001373	0.006561	-0.011749	0.05188	-0.005493	0.22079	-0.062866	0.12161	0.015869	-0.05249	0.095978	-0.23666	-0.027313	0.016785	-1.2631	0.36697	-0.049744	-0.38757	0.23544	0.22385	-0.12405	-0.082855	-0.075836	0.04364	-0.045013	-0.11124	-0.01297	-0.002441	0.002747
13.558	-0.006104	-0.27542	-0.080719	-0.029297	-0.000763	-0.011444	0.005341	-0.00473	0.2243	-0.036163	0.34637	0.01358	-0.11414	0.10651	-0.61706	-0.049286	-0.009918	-1.3335	-0.17303	0.053253	0.14587	0.26581	0.14191	0.034485	-0.057678	-0.075531	0.057983	-0.053711	-0.21698	-0.20371	-0.000153	-0.002899
13.559	-0.007019	-0.29251	-0.089569	-0.03418	-0.001373	-0.012817	-0.050812	0.003357	0.23361	-0.011597	0.32547	0.009003	-0.12192	0.10773	-0.56015	-0.051575	0.000305	-1.4064	-0.737	0.15167	0.076447	0.076904	0.021057	0.063934	-0.042419	0.00946	0.050964	-0.062714	-0.13382	-0.064545	0.004272	-0.005188
13.56	-0.006409	-0.31509	-0.10666	-0.02121	0.006256	-0.0354	-0.063934	0.000916	0.2536	0.001221	0.23132	0.004272	-0.12299	0.1358	-0.3363	-0.044098	0.035095	-1.474	-0.72784	0.046692	0.085602	0.11414	0.061035	0.039063	0.022888	0.092621	0.062408	-0.063019	0.025482	0.087433	-0.001221	-0.00885
13.561	-0.012054	-0.35446	-0.10544	0.005035	0.007019	-0.016937	-0.030518	-0.001068	0.27084	-0.018463	-0.082855	0.008087	-0.072937	0.074921	-0.082855	-0.054474	0.025635	-1.5938	-0.23972	-0.024109	-0.15717	0.14587	0.10834	0.020752	0.045319	-0.01709	0.099487	-0.062714	0.25299	0.096588	-0.002136	-0.007935
13.562	-0.014648	-0.34622	-0.11398	0.027771	0.011902	-0.031128	-0.032959	0.007172	0.26123	-0.021973	-0.074005	0.022736	-0.10407	0.059509	0.40222	-0.046387	-0.014038	-1.6931	-0.34088	0.024872	-0.26627	0.10666	0.060272	0.12589	0.025787	-0.087891	0.10895	-0.057068	0.2211	0.088043	-0.000763	0.003204
13.563	-0.020142	-0.38513	-0.11688	0.009003	0.012817	-0.03418	-0.077057	0.004578	0.26276	-0.04425	-0.004272	0.001373	-0.079803	0.078278	0.25177	-0.031281	-0.001984	-1.7992	-0.26977	-0.045471	0.027161	-0.018463	0.073853	0.21942	0.036011	-0.08667	0.10529	-0.073853	-0.51071	-0.066681	0.005951	-0.000153
13.564	-0.017242	-0.41718	-0.11169	-0.005341	0.011292	-0.027466	-0.098572	-0.004425	0.26367	-0.033417	-0.11139	0.001526	-0.072479	0.092316	0.3775	-0.049438	-0.027466	-1.7854	-0.48523	0.060883	-0.027313	-0.074768	0.14114	0.29327	-0.00412	-0.02121	0.11948	-0.093994	-0.50827	-0.050049	-0.001526	-0.008087
13.565	-0.018005	-0.50079	-0.12451	-0.001526	0.00946	-0.042419	-0.091553	-0.002899	0.26962	-0.021515	-0.10956	0.01236	-0.11322	0.12421	0.6279	-0.043793	-0.053558	-1.7189	-0.47577	0.035706	0.044556	-0.09201	0.26443	0.25162	-0.063324	0.085907	0.11032	-0.085907	-0.17716	-0.10635	0.000916	-0.018616
13.566	-0.018005	-0.51346	-0.14542	0.018616	0.014038	-0.033875	-0.019379	-0.006561	0.25345	-0.020905	-0.17044	0.016785	-0.12634	0.10223	0.47867	-0.050507	-0.077057	-1.6113	-0.27237	-0.016479	0.17716	-0.064392	0.28885	0.23834	-0.075531	0.05249	0.020294	0.009155	0.057983	-0.16357	-0.001068	-0.012207
13.567	-0.010986	-0.52261	-0.14069	-0.00824	0.020294	-0.027008	-0.048065	-0.001984	0.23315	-0.024872	-0.092163	0.020752	-0.10284	0.11566	0.71121	-0.059509	-0.093842	-1.4914	-0.12344	0.00061	0.26535	-0.28366	0.30975	0.14694	-0.11032	-0.078278	-0.11673	0.09613	0.26871	-0.041504	-0.002441	-0.018005
13.568	-0.009308	-0.49972	-0.16769	-0.010071	0.008392	-0.036621	-0.112	0.001068	0.24094	-0.005188	-0.029144	0.002441	-0.12924	0.061951	-0.01709	-0.046997	-0.063782	-1.4046	-0.1265	0.045166	0.056305	-0.54962	0.32455	0.047607	-0.09079	0.059357	-0.13886	-0.011749	0.59357	-0.04364	-0.001984	-0.015564
13.569	-0.000916	-0.47745	-0.18356	0.000153	0.011902	-0.031738	-0.19623	0.002594	0.22812	0.018005	-0.04715	0.005493	-0.10269	0.014038	-0.77057	-0.059814	-0.019836	-1.3791	0.48935	0.005646	-0.064087	-0.81894	0.24979	-0.14114	-0.10513	0.097656	-0.05249	-0.015869	0.51682	0.053558	-0.003052	-0.012512
13.57	0.001221	-0.50964	-0.17929	0.006104	0.00946	-0.02182	-0.17151	0.000458	0.21072	0.015564	-0.095978	0.001678	-0.10025	-0.0177	-0.82733	-0.062256	0.01297	-1.3692	-0.28275	0.029602	0.003052	-0.68283	-0.21713	-0.13367	0.016327	0.05127	0.007782	0.01358	0.10849	0.22659	-0.003357	-0.016327
13.571	0.005951	-0.51025	-0.17624	0.019379	0.01297	-0.032654	-0.058136	-0.001984	0.19348	0.017548	0.01236	-0.002899	-0.13153	0.003052	-0.53482	-0.056458	0.006714	-1.3765	-0.38773	0.074005	0.084229	-0.53604	-0.33936	-0.055389	0.011597	0.058289	0.002747	-0.010529	0.044861	0.33569	0.001831	-0.015411
13.572	0.008545	-0.47562	-0.16159	-0.008698	0.00946	-0.027618	0.018311	-0.009613	0.18784	0.039215	-0.085449	-0.019531	-0.17517	-0.03418	-0.43671	-0.050964	-0.006714	-1.5048	-0.46066	0.05127	-0.002594	-0.32806	-0.19348	0.030518	0.20309	0.011444	-0.018005	-0.027161	-0.2507	0.49744	0.001526	-0.009613
13.573	0.005188	-0.48019	-0.16007	-0.021362	0.010529	-0.015564	0.083313	-0.012817	0.20065	0.001526	0.035706	-0.0177	-0.10742	-0.00412	-0.3154	-0.012817	0.022888	-1.5086	-0.19165	-0.000458	-0.22858	-0.20035	-0.071411	0.070953	0.22476	-0.077362	-0.033569	-0.023499	-0.19516	0.17822	-0.001831	0.006561
13.574	-0.000305	-0.46524	-0.16968	-0.023041	0.008698	-0.031891	0.061646	-0.005035	0.19058	-0.016022	0.14633	-0.027313	-0.039673	0.045319	-0.049286	-0.003204	0.015106	-1.3126	-0.048523	-0.03418	-0.13123	-0.15305	0.04303	0.1001	0.15671	0.005035	-0.04776	-0.021667	0.19486	0.055695	0.000305	0.000763
